<?xml version="1.0" encoding="UTF-8"?>
<svg width="52px" height="44px" viewBox="0 0 52 44" version="1.1" xmlns="http://www.w3.org/2000/svg" xmlns:xlink="http://www.w3.org/1999/xlink">
    <!-- Generator: sketchtool 52.6 (67491) - http://www.bohemiancoding.com/sketch -->
    <title>AF122780-F623-402E-AEF7-B3ABBA1037A2</title>
    <desc>Created with sketchtool.</desc>
    <g id="Content" stroke="none" stroke-width="1" fill="none" fill-rule="evenodd">
        <g id="P-11.5-Coursegroup_content---chanpters" transform="translate(-613.000000, -170.000000)">
            <g id="Tabs" transform="translate(296.000000, 167.000000)">
                <g id="Assignments_ico" transform="translate(317.000000, 3.000000)">
                    <path d="M34.5980408,7.62165854 L36.0922449,9.20780488 L22.8534694,20.0811707 C22.8534694,20.0811707 26.2069388,23.8050732 21.8750204,31.1037073 L21.8750204,31.1037073 C21.1151837,30.6218537 20.1197551,30.7195122 19.4649796,31.4149268 L19.4649796,31.4149268 C18.6913469,32.2348293 18.6913469,33.5623415 19.4649796,34.3811707 L19.4649796,34.3811707 C20.237551,35.2010732 21.4897959,35.2010732 22.2613061,34.3811707 L22.2613061,34.3811707 C22.9150204,33.6879024 23.0094694,32.6308293 22.5542041,31.8238049 L22.5542041,31.8238049 C29.4351837,27.229561 32.9435918,30.787122 32.9435918,30.787122 L32.9435918,30.787122 L43.192898,16.7425366 L44.6881633,18.3276098 L51.3112653,11.301561 L41.2211429,0.594536585 L34.5980408,7.62165854 Z M30.9644082,21.2359024 L34.7540408,17.2147317 C35.0002449,16.9539512 35.3992653,16.9539512 35.6454694,17.2147317 L35.6454694,17.2147317 C35.8927347,17.4765854 35.8927347,17.9004878 35.6454694,18.1612683 L35.6454694,18.1612683 L31.8558367,22.1813659 C31.8282449,22.2103415 31.7953469,22.2242927 31.7645714,22.2468293 L31.7645714,22.2468293 C32.1253878,23.0141463 32.012898,23.9681951 31.4101224,24.608878 L31.4101224,24.608878 C30.6545306,25.4094634 29.4309388,25.4094634 28.6774694,24.608878 L28.6774694,24.608878 C27.9229388,23.8072195 27.9229388,22.5097561 28.6774694,21.7091707 L28.6774694,21.7091707 C29.2813061,21.069561 30.1801633,20.950439 30.9028571,21.3324878 L30.9028571,21.3324878 C30.9251429,21.3013659 30.9368163,21.2638049 30.9644082,21.2359024 L30.9644082,21.2359024 Z" id="Clip-2" fill="#26A69A"></path>
                    <path d="M4.20138776,7.70643902 C2.09591837,7.70643902 0.372489796,9.53512195 0.372489796,11.7683902 L0.372489796,11.7683902 L0.372489796,39.4604878 C0.372489796,41.6937561 2.09591837,43.522439 4.20138776,43.522439 L4.20138776,43.522439 L37.4325714,43.522439 C39.539102,43.522439 41.2614694,41.6937561 41.2614694,39.4604878 L41.2614694,39.4604878 L41.2614694,22.8467317 L33.166449,33.9400976 L31.5661224,32.3174634 C31.5618776,32.3174634 30.7351837,31.5898537 29.0892245,31.5898537 L29.0892245,31.5898537 C27.8030204,31.5898537 26.3746122,32.0223415 24.8337143,32.8733659 L24.8337143,32.8733659 C24.8390204,33.6245854 24.6416327,34.364 24.2786939,35.0229268 L24.2786939,35.0229268 L33.7819592,35.0229268 C34.3348571,35.0229268 34.7805714,35.4961951 34.7805714,36.08 L34.7805714,36.08 C34.7805714,36.6659512 34.3348571,37.1392195 33.7819592,37.1392195 L33.7819592,37.1392195 L5.24881633,37.1392195 C4.69804082,37.1392195 4.25020408,36.6659512 4.25020408,36.08 L4.25020408,36.08 C4.25020408,35.4961951 4.69804082,35.0229268 5.24881633,35.0229268 L5.24881633,35.0229268 L17.4486531,35.0229268 C16.5582857,33.4067317 16.7503673,31.3000976 18.053551,29.9178537 L18.053551,29.9178537 C18.8017143,29.1247805 19.7960816,28.6869268 20.8541224,28.6869268 L20.8541224,28.6869268 L20.8859592,28.6869268 C23.2302041,23.9016585 21.4590204,21.6061463 21.3762449,21.503122 L21.3762449,21.503122 L19.8470204,19.8042927 L21.6330612,18.4059512 L33.0794286,9.00604878 L31.8547755,7.70643902 L4.20138776,7.70643902 Z M4.25020408,15.148878 C4.25020408,14.5629268 4.69804082,14.0885854 5.24881633,14.0885854 L5.24881633,14.0885854 L21.2637551,14.0885854 C21.8155918,14.0885854 22.2623673,14.5629268 22.2623673,15.148878 L22.2623673,15.148878 C22.2623673,15.7316098 21.8155918,16.2070244 21.2637551,16.2070244 L21.2637551,16.2070244 L5.24881633,16.2070244 C4.69804082,16.2070244 4.25020408,15.7316098 4.25020408,15.148878 L4.25020408,15.148878 Z M4.25020408,25.7228293 C4.25020408,25.136878 4.69804082,24.6636098 5.24881633,24.6636098 L5.24881633,24.6636098 L18.5173061,24.6636098 C19.0680816,24.6636098 19.5137959,25.136878 19.5137959,25.7228293 L19.5137959,25.7228293 C19.5137959,26.3066341 19.0680816,26.7799024 18.5173061,26.7799024 L18.5173061,26.7799024 L5.24881633,26.7799024 C4.69804082,26.7799024 4.25020408,26.3066341 4.25020408,25.7228293 L4.25020408,25.7228293 Z" id="Clip-5" fill="#FFCC80"></path>
                </g>
            </g>
        </g>
    </g>
</svg>