<svg width="41" height="48" viewBox="0 0 41 48" xmlns="http://www.w3.org/2000/svg"><title>content_ico</title><g fill="none" fill-rule="evenodd"><path d="M1.073 6.307c-.467.098-.8.49-.8.944v35.625c0 .045.004.092.01.136.67 4.46 5.368 4.76 6.245 4.776h.088v-.968l.053.968H39.4c.566 0 1.023-.434 1.023-.97V10.184c0-.535-.457-.97-1.023-.97H19.844v20.69c0 .404-.264.765-.66.907-.394.14-.847.038-1.128-.263l-4.63-4.96-4.205 4.926c-.196.233-.49.36-.793.36-.114 0-.23-.02-.342-.056-.408-.136-.68-.503-.68-.914V9.213h-.418c-.057 0-.114.005-.173.014-.255.043-.505.063-.75.063-2.565 0-3.794-2.355-3.842-2.452-.172-.344-.53-.556-.92-.556-.077 0-.153.008-.23.025z" fill="#FD8268"/><path d="M34.964 1.107c-.078.087-1.9 2.148-1.54 4.858.253 1.887 1.47 3.573 3.623 5.01.18.12.384.178.588.178.32 0 .638-.144.837-.413.326-.438.214-1.042-.248-1.35-1.655-1.105-2.586-2.333-2.768-3.65-.255-1.853 1.05-3.363 1.066-3.38.363-.406.31-1.015-.118-1.36-.192-.158-.428-.234-.663-.234-.288 0-.575.116-.776.34z" fill="#73BCAE"/><path d="M5.312.767C3.58.817.312 1.854.272 5.41c-.045.413-.176 2.217 1.013 3.73.86 1.097 2.18 1.77 3.916 2.003.05.006.096.01.144.01H39.4c.566 0 1.023-.434 1.023-.97s-.457-.97-1.023-.97H5.418c-3.39-.487-3.186-3.083-3.11-3.595.008-.048.01-.098.01-.147 0-2.572 2.748-2.754 3.026-2.764h32.293c.564 0 1.022-.435 1.022-.97 0-.536-.46-.97-1.023-.97H5.312z" fill="#00718D"/></g></svg>