<?xml version="1.0" encoding="UTF-8"?>
<svg width="44px" height="48px" viewBox="0 0 44 48" version="1.1" xmlns="http://www.w3.org/2000/svg" xmlns:xlink="http://www.w3.org/1999/xlink">
    <!-- Generator: sketchtool 52.6 (67491) - http://www.bohemiancoding.com/sketch -->
    <title>99E621F8-E9E3-4501-9108-FA34AD95CC03</title>
    <desc>Created with sketchtool.</desc>
    <g id="Content" stroke="none" stroke-width="1" fill="none" fill-rule="evenodd">
        <g id="P-11.5-Coursegroup_content---chanpters" transform="translate(-328.000000, -168.000000)">
            <g id="Tabs" transform="translate(296.000000, 167.000000)">
                <g id="Overview_ico" transform="translate(32.000000, 1.000000)">
                    <path d="M22.0263,48 C21.6043,48 21.1873,47.8090213 20.9063,47.4434043 C20.4233,46.8122553 20.5333,45.9012766 21.1503,45.4069787 L39.9893,30.3574468 L25.0513,13.7555745 C24.5203,13.1652766 24.5583,12.2481702 25.1353,11.7068936 C25.7133,11.1645957 26.6113,11.2034043 27.1423,11.7926809 L43.1203,29.549617 C43.3893,29.8478298 43.5233,30.2471489 43.4903,30.6505532 C43.4583,31.0529362 43.2623,31.4246809 42.9503,31.6738723 L22.9003,47.6925957 C22.6403,47.8999149 22.3323,48 22.0263,48" id="Fill-1" fill="#00BCD4"></path>
                    <path d="M30.1898,2.13201702 L29.6708,1.60197447 C27.5798,-0.53453617 24.1758,-0.53453617 22.0848,1.60197447 L16.6428,7.16078298 C18.4588,7.88384681 20.1288,8.9796766 21.5478,10.4288681 C22.9888,11.9015489 24.0488,13.6142298 24.7438,15.4412936 L30.1898,9.87942128 C32.2808,7.74393191 32.2808,4.26852766 30.1898,2.13201702" id="Fill-4" fill="#F48FB1"></path>
                    <path d="M13.4005,26.6565447 L12.6885,25.9293957 L6.1855,19.288034 L5.4725,18.5608851 L4.7785,17.8521191 C4.3595,18.1227574 3.9685,18.4403745 3.6095,18.8059915 C0.9775,21.4950128 0.9775,25.871183 3.6105,28.5602043 C4.9275,29.9042043 6.6555,30.575183 8.3845,30.575183 C10.1135,30.575183 11.8425,29.903183 13.1595,28.559183 C13.5175,28.1925447 13.8295,27.7932255 14.0945,27.3653106 L13.4005,26.6565447 Z" id="Fill-7" fill="#FFCC80"></path>
                    <path d="M24.1345,16.0645787 C23.4395,14.2375149 22.3795,12.5238128 20.9385,11.0521532 C19.5185,9.6029617 17.8495,8.50713191 16.0335,7.78406809 C14.4005,7.13351489 12.6495,6.78219574 10.8435,6.78219574 C7.0305,6.78219574 3.4455,8.29879149 0.7505,11.0521532 C0.3805,11.4300255 0.3805,12.0417702 0.7505,12.4196426 L5.5165,17.2870468 L6.2105,17.9958128 L6.9235,18.7229617 L13.4265,25.3643234 L14.1385,26.0914723 L14.8325,26.8002383 L19.5995,31.6686638 C19.7845,31.8576 20.0265,31.9515574 20.2685,31.9515574 C20.5115,31.9515574 20.7535,31.8576 20.9385,31.6686638 C25.0625,27.4569191 26.1225,21.2904511 24.1345,16.0645787" id="Fill-9" fill="#90A4AE"></path>
                    <path d="M38.1767,48 L1.4197,48 C0.6357,48 -0.0003,47.3514894 -0.0003,46.5497872 C-0.0003,45.7491064 0.6357,45.0995745 1.4197,45.0995745 L38.1767,45.0995745 C38.9607,45.0995745 39.5967,45.7491064 39.5967,46.5497872 C39.5967,47.3514894 38.9607,48 38.1767,48" id="Fill-11" fill="#B0BEC5"></path>
                </g>
            </g>
        </g>
    </g>
</svg>