<?xml version="1.0" encoding="UTF-8"?>
<svg width="49px" height="49px" viewBox="0 0 49 49" version="1.1" xmlns="http://www.w3.org/2000/svg" xmlns:xlink="http://www.w3.org/1999/xlink">
    <!-- Generator: sketchtool 52.6 (67491) - http://www.bohemiancoding.com/sketch -->
    <title>FE82E6F4-C792-4026-BA6A-04E930E2BC97</title>
    <desc>Created with sketchtool.</desc>
    <defs>
        <path d="M0.217,21.783 C0.217,28.411 3.734,34.313 9.217,38.161 L9.217,38.161 L9.217,48.783 L19.731,42.404 C21.186,42.643 22.683,42.782 24.218,42.782 L24.218,42.782 C37.471,42.782 48.217,33.381 48.217,21.783 L48.217,21.783 C48.217,10.186 37.471,0.783 24.218,0.783 L24.218,0.783 C10.963,0.783 0.217,10.186 0.217,21.783 L0.217,21.783 Z M12.217,18.783 C12.217,17.955 12.889,17.283 13.717,17.283 L13.717,17.283 L34.717,17.283 C35.545,17.283 36.217,17.955 36.217,18.783 L36.217,18.783 C36.217,19.612 35.545,20.282 34.717,20.282 L34.717,20.282 L13.717,20.282 C12.889,20.282 12.217,19.612 12.217,18.783 L12.217,18.783 Z M15.218,27.783 C15.218,26.953 15.889,26.283 16.717,26.283 L16.717,26.283 L31.717,26.283 C32.545,26.283 33.218,26.953 33.218,27.783 L33.218,27.783 C33.218,28.612 32.545,29.282 31.717,29.282 L31.717,29.282 L16.717,29.282 C15.889,29.282 15.218,28.612 15.218,27.783 L15.218,27.783 Z" id="path-1"></path>
    </defs>
    <g id="Main-pages" stroke="none" stroke-width="1" fill="none" fill-rule="evenodd">
        <g id="Student--CourseGroup_Homepage" transform="translate(-1070.000000, -179.000000)">
            <g id="Tabs" transform="translate(296.000000, 179.000000)">
                <g id="posts_ico" transform="translate(774.000000, 0.000000)">
                    <mask id="mask-2" fill="white">
                        <use xlink:href="#path-1"></use>
                    </mask>
                    <g id="Clip-2"></g>
                    <polygon id="Fill-1" fill="#9575CD" mask="url(#mask-2)" points="-5 -4.435 53.435 -4.435 53.435 54 -5 54"></polygon>
                </g>
            </g>
        </g>
    </g>
</svg>