<?xml version="1.0" encoding="UTF-8"?>
<svg width="41px" height="49px" viewBox="0 0 41 49" version="1.1" xmlns="http://www.w3.org/2000/svg" xmlns:xlink="http://www.w3.org/1999/xlink">
    <!-- Generator: sketchtool 52.6 (67491) - http://www.bohemiancoding.com/sketch -->
    <title>BCF648F1-05D4-47E7-8F0D-109D8ED9BE4A</title>
    <desc>Created with sketchtool.</desc>
    <defs>
        <path d="M5.79,8.148 C5.652,8.289 5.524,8.435 5.411,8.592 L5.411,8.592 C5.318,8.725 5.229,8.871 5.192,8.945 L5.192,8.945 C4.191,10.353 2.86,14.044 2.861,15.277 L2.861,15.277 C2.803,15.696 2.775,16.066 2.775,16.406 L2.775,16.406 C2.777,16.672 2.772,16.938 2.767,17.204 L2.767,17.204 C2.757,17.725 2.749,18.247 2.777,18.763 L2.777,18.763 C2.808,19.349 2.954,19.82 3.083,20.234 L3.083,20.234 C3.153,20.461 3.228,20.692 3.279,20.957 L3.279,20.957 C3.485,21.997 3.345,23.136 2.837,24.544 L2.837,24.544 L2.536,25.385 C2.212,26.298 1.875,27.241 1.505,28.139 L1.505,28.139 C1.431,28.318 1.26,28.577 1.093,28.828 L1.093,28.828 C0.655,29.485 0.112,30.306 0.303,31.194 L0.303,31.194 C0.375,31.529 0.584,32.006 1.176,32.38 L1.176,32.38 C1.552,32.618 1.992,32.732 2.38,32.832 L2.38,32.832 C2.548,32.876 2.784,32.937 2.922,32.994 L2.922,32.994 C2.913,33.072 2.893,33.183 2.878,33.266 L2.878,33.266 C2.818,33.596 2.737,34.051 2.907,34.524 L2.907,34.524 C3.021,34.84 3.199,35.079 3.447,35.241 L3.447,35.241 C3.088,36.078 3.17,36.552 3.721,37.247 L3.721,37.247 C3.795,37.339 3.883,37.45 3.982,37.59 L3.982,37.59 C4.159,37.845 4.112,38.173 3.96,38.859 L3.96,38.859 C3.806,39.554 3.614,40.417 4.03,41.282 L4.03,41.282 C4.861,43.009 6.978,43.172 8.381,43.28 L8.381,43.28 C8.589,43.297 8.787,43.312 8.973,43.331 L8.973,43.331 C9.742,43.411 10.591,43.448 11.645,43.448 L11.645,43.448 C12.192,43.448 12.741,43.438 13.287,43.429 L13.287,43.429 C13.59,43.423 13.89,43.418 14.19,43.414 L14.19,43.414 L16.437,48.21 C16.57,48.494 16.83,48.695 17.133,48.76 L17.133,48.76 L38.407,48.76 C38.712,48.695 38.974,48.489 39.105,48.199 L39.105,48.199 C39.267,47.844 39.202,47.428 38.943,47.136 L38.943,47.136 C38.892,47.079 33.982,41.495 34.37,35.575 L34.37,35.575 C34.594,35.303 34.819,35.014 35.024,34.709 L35.024,34.709 C35.248,34.376 35.458,34.029 35.706,33.614 L35.706,33.614 C38.552,30.028 40.12,25.494 40.12,20.844 L40.12,20.844 C40.12,9.77 31.439,0.76 20.769,0.76 L20.769,0.76 C14.942,0.76 9.486,3.452 5.79,8.148 L5.79,8.148 Z M8.165,20.238 C8.165,13.27 13.886,7.6 20.915,7.6 L20.915,7.6 C27.945,7.6 33.664,13.27 33.664,20.238 L33.664,20.238 C33.664,27.208 27.945,32.877 20.915,32.877 L20.915,32.877 C13.886,32.877 8.165,27.208 8.165,20.238 L8.165,20.238 Z" id="path-1"></path>
        <path d="M0.241,2.238 C0.241,3.31 1.117,4.178 2.197,4.178 L2.197,4.178 C3.276,4.178 4.153,3.31 4.153,2.238 L4.153,2.238 C4.153,1.169 3.276,0.301 2.197,0.301 L2.197,0.301 C1.117,0.301 0.241,1.169 0.241,2.238 L0.241,2.238 Z" id="path-3"></path>
        <path d="M0.96,2.238 C0.96,3.31 1.835,4.178 2.915,4.178 L2.915,4.178 C3.995,4.178 4.87,3.31 4.87,2.238 L4.87,2.238 C4.87,1.169 3.995,0.301 2.915,0.301 L2.915,0.301 C1.835,0.301 0.96,1.169 0.96,2.238 L0.96,2.238 Z" id="path-5"></path>
        <path d="M0.677,2.238 C0.677,3.31 1.553,4.178 2.632,4.178 L2.632,4.178 C3.713,4.178 4.589,3.31 4.589,2.238 L4.589,2.238 C4.589,1.169 3.713,0.301 2.632,0.301 L2.632,0.301 C1.553,0.301 0.677,1.169 0.677,2.238 L0.677,2.238 Z" id="path-7"></path>
    </defs>
    <g id="Content" stroke="none" stroke-width="1" fill="none" fill-rule="evenodd">
        <g id="P-11.5-Coursegroup_content---chanpters" transform="translate(-763.000000, -167.000000)">
            <g id="Tabs" transform="translate(296.000000, 167.000000)">
                <g id="Quizzes_ico" transform="translate(467.000000, 0.000000)">
                    <g id="Group-3">
                        <mask id="mask-2" fill="white">
                            <use xlink:href="#path-1"></use>
                        </mask>
                        <g id="Clip-2"></g>
                        <polygon id="Fill-1" fill="#F48FB1" mask="url(#mask-2)" points="-5 -4.457 45.383 -4.457 45.383 54 -5 54"></polygon>
                    </g>
                    <g id="Group-6" transform="translate(12.000000, 18.000000)">
                        <mask id="mask-4" fill="white">
                            <use xlink:href="#path-3"></use>
                        </mask>
                        <g id="Clip-5"></g>
                        <polygon id="Fill-4" fill="#3F51B5" mask="url(#mask-4)" points="-5.022 -4.917 9.416 -4.917 9.416 9.395 -5.022 9.395"></polygon>
                    </g>
                    <g id="Group-9" transform="translate(18.000000, 18.000000)">
                        <mask id="mask-6" fill="white">
                            <use xlink:href="#path-5"></use>
                        </mask>
                        <g id="Clip-8"></g>
                        <polygon id="Fill-7" fill="#3F51B5" mask="url(#mask-6)" points="-4.304 -4.917 10.133 -4.917 10.133 9.395 -4.304 9.395"></polygon>
                    </g>
                    <g id="Group-12" transform="translate(25.000000, 18.000000)">
                        <mask id="mask-8" fill="white">
                            <use xlink:href="#path-7"></use>
                        </mask>
                        <g id="Clip-11"></g>
                        <polygon id="Fill-10" fill="#3F51B5" mask="url(#mask-8)" points="-4.586 -4.917 9.852 -4.917 9.852 9.395 -4.586 9.395"></polygon>
                    </g>
                </g>
            </g>
        </g>
    </g>
</svg>